HIERARCHY
ROOT pelvis
{
  OFFSET 0 100 0
  CHANNELS 6 Xposition Yposition Zposition Zrotation Xrotation Yrotation
  JOINT pelvis_right_femur
  {
    OFFSET -10.78128 -3.44521 -0.5502486
    CHANNELS 3 Zrotation Xrotation Yrotation
    JOINT right_femur_tibia
    {
      OFFSET -0.8047443 -44.0398 -0.1307829
      CHANNELS 3 Zrotation Xrotation Yrotation
      JOINT right_tibia_foot
      {
        OFFSET 3.006224 -47.83518 -5
        CHANNELS 3 Zrotation Xrotation Yrotation
        End Site
        {
          OFFSET 0 -5 15
        }
      }
    }
  }
  JOINT pelvis_left_femur
  {
    OFFSET 10.78128 -3.44521 -0.5502486
    CHANNELS 3 Zrotation Xrotation Yrotation
    JOINT left_femur_tibia
    {
      OFFSET 0.8047443 -44.0398 -0.1307829
      CHANNELS 3 Zrotation Xrotation Yrotation
      JOINT left_tibia_foot
      {
        OFFSET -4.370144 -48.10324 -4.275266
        CHANNELS 3 Zrotation Xrotation Yrotation
        End Site
        {
          OFFSET 0 -5 15
        }
      }
    }
  }
  JOINT pelvis_spine1
  {
    OFFSET 0 6.468898 -3.129235
    CHANNELS 3 Zrotation Xrotation Yrotation
    JOINT spine1
    {
      OFFSET 0 23.15396 4.99043
      CHANNELS 3 Zrotation Xrotation Yrotation
      JOINT spine2
      {
        OFFSET 0 20.79997 -5.064912
        CHANNELS 3 Zrotation Xrotation Yrotation
        JOINT neck
        {
          OFFSET 0 14.38658 9.616178
          CHANNELS 3 Zrotation Xrotation Yrotation
          End Site
          {
            OFFSET 0 20 0
          }
        }
      }
      JOINT right_manubrium
      {
        OFFSET -5.722621 16.35077 3.967754
        CHANNELS 3 Zrotation Xrotation Yrotation
        JOINT right_clavicle
        {
          OFFSET -13.16364 1.694482 -4.693211
          CHANNELS 3 Zrotation Xrotation Yrotation
          JOINT right_humerus
          {
            OFFSET -28.5034 -0.3100689 -2.792744
            CHANNELS 3 Zrotation Xrotation Yrotation
            JOINT right_radius
            {
              OFFSET -25.15693 0.02248979 -1.271978
              CHANNELS 3 Zrotation Xrotation Yrotation
              End Site
              {
                OFFSET -15 0 0
              }
            }
          }
        }
      }
      JOINT left_manubrium
      {
        OFFSET 5.722621 16.35077 3.967754
        CHANNELS 3 Zrotation Xrotation Yrotation
        JOINT left_clavicle
        {
          OFFSET 13.16364 1.694482 -4.693211
          CHANNELS 3 Zrotation Xrotation Yrotation
          JOINT left_humerus
          {
            OFFSET 29.39168 -1.063119 -2.237045
            CHANNELS 3 Zrotation Xrotation Yrotation
            JOINT left_radius
            {
              OFFSET 24.59957 -0.9528479 0.9047498
              CHANNELS 3 Zrotation Xrotation Yrotation
              End Site
              {
                OFFSET 15 -0 -0
              }
            }
          }
        }
      }
    }
  }
}
MOTION
Frames: 21
Frame Time: 0.0416666666667
1613.693 103.8889 2429.232 4.743676 -0.6654586 66.07837 0.1376338 -26.453 1.567081 -0 21.49332 -0 0.5200261 -3.622866 -8.91579 -5.297653 16.77075 -9.452099 -0 11.18855 -0 -4.929631 -20.77861 13.03341 -3.291812 0.2265193 2.129115 1.541503 8.931445 -8.638933 1.475011 21.8197 7.07732 2.440506 -17.2398 8.291783 3.212447 -14.1236 10.07652 89.90774 28.92172 -22.6387 -0 0 9.405351 -21.78935 14.8776 10.93574 6.397987 -22.24013 -4.733937 -80.86696 25.22024 4.197221 0 0 -28.042 -0.2598173 8.172899 13.54088
1619.037 102.5977 2431.751 4.016539 -0.5324718 66.66818 0.5737043 -28.69701 1.425478 -0 16.561 -0 0.02686617 -3.457365 -8.797249 -4.961741 18.61283 -9.729459 -0 12.79051 -0 -5.930305 -21.03782 12.16082 -3.017224 0.1257641 1.956101 1.654554 8.5181 -8.682701 1.717104 21.70654 6.957899 2.589882 -17.41783 8.329515 3.130541 -13.51958 9.916062 90.27445 28.98328 -23.55204 -0 0 8.668186 -20.96257 15.01895 10.13611 6.758085 -22.56467 -4.59892 -80.5803 25.46963 3.346822 0 0 -29.30589 -0.04271768 8.874572 13.32256
1624.606 101.3785 2434.456 3.336772 -0.5911865 67.15779 1.31796 -29.7375 1.47783 -0 13.58883 -0 -0.6814159 -3.204489 -8.583943 -4.497038 19.6572 -9.883605 -0 15.89737 -0 -7.031574 -20.43451 11.22777 -2.580868 0.04361114 1.776802 1.732361 8.15121 -8.624948 1.926752 21.6869 6.76682 2.67106 -17.64693 8.304921 3.143912 -12.96118 9.848168 90.47621 29.16964 -24.0369 -0 0 8.023403 -20.12484 15.12383 9.414617 6.793822 -22.56989 -4.472514 -80.62133 25.77011 3.189289 0 0 -29.69635 0.1505777 9.666146 13.22682
1630.396 100.4357 2437.342 2.833224 -0.8744143 67.51411 2.358815 -29.24809 1.762901 -0 12.72346 -0 -1.586289 -3.226806 -8.355769 -3.932289 19.79857 -9.861909 -0 20.75597 -0 -8.106319 -18.82515 10.38111 -1.995812 -0.02314879 1.611062 1.803557 7.861002 -8.484559 2.081322 21.81013 6.480158 2.633793 -17.87706 8.198474 3.233221 -12.46656 9.891117 90.5085 29.4217 -24.0554 -0 0 7.448564 -19.27992 15.15784 8.805972 6.460621 -22.22934 -4.360989 -80.99686 26.08803 3.676723 0 0 -29.09517 0.3027032 10.48858 13.23014
1636.368 99.95339 2440.381 2.680179 -1.354256 67.67593 3.54751 -26.98549 2.267693 -0 13.7521 -0 -2.557663 -3.848739 -8.216353 -3.362418 18.95127 -9.646521 -0 27.54584 -0 -8.975061 -16.24672 9.87095 -1.351495 -0.0716883 1.538241 1.881642 7.689947 -8.263424 2.181689 22.10545 6.094669 2.468599 -18.00825 8.005656 3.395344 -12.04496 10.04229 90.34966 29.68967 -23.60829 -0 0 6.910717 -18.46266 15.1178 8.331091 5.799918 -21.57633 -4.247965 -81.66612 26.34474 4.62682 0 0 -27.52745 0.4206602 11.2263 13.25324
1642.441 100.0591 2443.519 3.07026 -1.93535 67.57261 4.607284 -22.96863 2.902292 -0 16.01851 -0 -3.404835 -5.158877 -8.226429 -2.936497 17.04019 -9.305279 -0 36.19402 -0 -9.472521 -13.06189 10.01035 -0.8115975 -0.0588218 1.681386 1.936907 7.683154 -7.919181 2.271286 22.58398 5.636465 2.239715 -17.90111 7.750189 3.635072 -11.70282 10.26432 89.96253 29.9359 -22.71733 -0 0 6.388434 -17.73876 15.00283 7.974133 4.972792 -20.71943 -4.105899 -82.55478 26.46321 5.746653 0 0 -25.1877 0.5452572 11.77064 13.1638
1648.477 100.7818 2446.672 4.117582 -2.49321 67.16316 5.267024 -17.58963 3.525026 -0 18.54156 -0 -4.002378 -6.886585 -8.307618 -2.786352 13.93888 -8.995997 -0 45.99154 -0 -9.530322 -9.985401 11.05135 -0.5478582 0.1165941 2.145329 1.891103 7.861515 -7.36164 2.424722 23.23671 5.153744 2.070778 -17.46122 7.483225 3.916647 -11.49727 10.49445 89.30132 30.0901 -21.35823 -0 0 5.964532 -17.17591 14.74253 7.694471 4.227065 -19.80448 -3.918177 -83.64418 26.44012 6.837036 0 0 -22.35542 0.7156658 12.10121 12.85434
1654.286 102.0021 2449.738 5.69908 -2.936629 66.47596 5.433149 -11.52685 3.990307 -0 20.3004 -0 -4.369654 -8.548051 -8.22356 -2.909929 9.467965 -8.854043 -0 55.12521 -0 -9.217314 -7.825432 12.98025 -0.6225431 0.5562068 2.932844 1.66612 8.188344 -6.518025 2.679008 23.99427 4.707455 2.06101 -16.75938 7.255008 4.113658 -11.60611 10.68626 88.32551 29.99177 -19.42666 -0 0 5.951354 -16.83233 14.18918 7.510606 3.788738 -18.9426 -3.693006 -85.03461 26.3374 8.044094 0 0 -19.2915 0.9025818 12.26767 12.35982
1659.717 103.4195 2452.622 7.351517 -3.228087 65.60814 5.241565 -5.492643 4.202847 -0 20.51717 -0 -4.559255 -9.820183 -7.705441 -3.083582 3.558693 -8.787686 -0 60.78697 -0 -8.713274 -6.973066 15.34837 -0.9019058 1.229812 3.92605 1.259558 8.581225 -5.453377 2.947237 24.65253 4.383613 2.196976 -16.06723 7.079386 4.051434 -12.31482 10.85696 87.03217 29.45103 -16.8768 -0 0 6.884056 -16.84589 13.31221 7.6028 3.737563 -18.19518 -3.467927 -86.80522 26.14732 9.826235 0 0 -16.34245 0.9804206 12.22758 11.91842
1664.788 104.6141 2455.278 8.400581 -3.338398 64.67186 4.940955 -0.01969521 4.197355 -0 18.89087 -0 -4.43806 -10.79574 -6.644901 -2.902154 -3.539834 -8.377529 -0 60.55046 -0 -8.214364 -7.068248 17.39504 -1.120231 1.90148 4.986926 0.7697066 8.988789 -4.428519 3.02963 24.88075 4.294014 2.357179 -15.74779 6.934073 3.653304 -13.852 11.08107 85.49709 28.49287 -13.96672 -0 0 9.223189 -17.5137 12.42986 8.269498 3.952932 -17.63698 -3.298123 -88.74883 25.72676 12.53755 0 0 -14.17075 0.7910335 11.71968 11.90625
1669.712 105.23 2457.729 8.34374 -3.213461 63.74735 4.706633 4.623151 4.133734 -0 15.84215 -0 -3.749977 -11.84985 -5.197388 -2.004841 -11.16914 -7.135609 -0 54.20643 -0 -7.772943 -7.323877 18.55192 -1.112015 2.256577 6.049925 0.3406901 9.40131 -3.76648 2.775049 24.44589 4.493934 2.411861 -16.05614 6.79345 3.03184 -16.13382 11.39918 83.84994 27.54115 -11.21682 -0 0 12.86732 -19.05993 12.0011 9.669217 4.1904 -17.34631 -3.191208 -90.38908 25.0113 16.01672 0 0 -13.48071 0.2912356 10.47433 12.58529
1674.754 105.1342 2460.056 7.231986 -2.842565 62.88893 4.531759 8.46034 4.089491 -0 12.53526 -0 -2.551734 -13.2612 -3.689115 -0.4138198 -18.27407 -5.075778 -0 44.06196 -0 -7.26153 -7.265574 18.88149 -0.9667902 2.148378 7.039113 0.06915177 9.719193 -3.581817 2.250721 23.51344 4.887145 2.327577 -16.92199 6.659576 2.398014 -18.62736 11.71867 82.19907 27.16199 -8.957845 -0 0 16.93558 -21.23664 12.08343 11.58215 4.268955 -17.25431 -3.055041 -91.40988 24.22525 19.59429 0 0 -14.11728 -0.3426363 8.727722 13.76949
1680.077 104.4171 2462.338 5.680889 -2.338894 62.12762 4.259692 11.72469 3.943428 -0 10.33525 -0 -1.314409 -14.8943 -2.407251 1.283014 -23.71066 -3.01113 -0 33.42152 -0 -6.635447 -7.007338 18.91046 -0.8927963 1.696495 7.783878 -0.0730381 9.739824 -3.657124 1.713897 22.59784 5.29691 2.199191 -17.89996 6.579205 1.921923 -20.58301 11.85115 80.61801 27.53239 -7.075541 -0 0 20.26241 -23.41635 12.30772 13.49476 4.208693 -17.09582 -2.786189 -91.93458 23.67786 22.47512 0 0 -14.81889 -0.8603984 7.290623 14.87929
1685.738 103.3059 2464.635 4.430552 -1.85875 61.45337 3.714903 14.6134 3.630317 -0 10.10504 -0 -0.4031336 -16.09925 -1.482936 2.251979 -26.88386 -1.994498 -0 24.98229 -0 -6.078142 -6.860084 19.08836 -1.01163 1.13536 8.178966 -0.2155348 9.400352 -3.653499 1.410592 22.10774 5.621548 2.174951 -18.50719 6.618694 1.680412 -21.5425 11.68973 79.21399 28.28516 -5.371987 -0 0 22.22108 -25.1561 12.37119 14.96104 4.150807 -16.63475 -2.402918 -92.28892 23.46715 24.2265 0 0 -14.38469 -1.189165 6.768966 15.49858
1691.755 102.0921 2466.983 3.879254 -1.459982 60.8526 2.829166 17.09774 3.35364 -0 12.14306 -0 0.2214898 -15.93162 -0.932637 2.062815 -27.99057 -2.387555 -0 20.11164 -0 -5.72992 -6.981158 19.49667 -1.341706 0.6103398 8.334835 -0.4616588 8.920602 -3.415784 1.420382 22.04564 5.853398 2.32531 -18.64747 6.796891 1.642086 -21.60596 11.31775 78.22261 28.88389 -3.992952 -0 0 22.95064 -26.41781 12.25133 15.82657 4.160609 -15.90205 -2.043584 -92.67799 23.51336 25.03125 0 0 -12.7746 -1.433434 6.983207 15.73474
1698.13 101.0843 2469.399 3.985487 -1.094192 60.37619 1.666914 18.87647 3.403004 -0 16.6183 -0 0.7676816 -13.65811 -0.7462192 0.8870527 -27.58063 -3.70752 -0 18.76226 -0 -5.471102 -7.359961 19.91429 -1.86933 0.1265272 8.455182 -0.8065061 8.644287 -3.047758 1.643658 22.13032 6.025876 2.613111 -18.59093 7.048601 1.757963 -21.21256 10.94633 77.89409 29.09263 -3.323772 -0 0 22.93617 -27.33156 12.11573 16.17363 4.166076 -15.17219 -1.864807 -93.09442 23.66989 25.45018 0 0 -10.85338 -1.686683 7.308266 15.95528
1704.829 100.5621 2471.861 4.459389 -0.7082735 60.14945 0.4069495 19.40942 3.868919 -0 23.71663 -0 1.378697 -9.259374 -0.9443758 -0.8163169 -26.04039 -5.198987 -0 19.81108 -0 -5.052004 -7.901194 20.01694 -2.548085 -0.3552043 8.623852 -1.157096 8.812462 -2.791173 1.877054 22.06116 6.200795 2.960782 -18.62296 7.262452 2.103798 -20.76816 10.78621 78.24359 29.10977 -3.616331 -0 0 22.5807 -27.99895 12.22777 16.20878 4.046272 -14.76458 -1.962812 -93.35346 23.73575 25.9225 0 0 -9.517307 -1.914314 7.250901 16.36147
1711.739 100.7158 2474.303 5.004574 -0.3506996 60.31697 -0.6529795 18.09409 4.547136 -0 33.21659 -0 2.076393 -3.652561 -1.588942 -2.580054 -23.41951 -6.316595 -0 21.67485 -0 -4.335806 -8.516103 19.59443 -3.253061 -0.7935318 8.709086 -1.384308 9.443005 -2.876883 1.927934 21.7218 6.43764 3.267694 -18.80657 7.364444 2.8075 -20.44155 10.93485 79.07865 29.29553 -4.833959 -0 0 22.02063 -28.42961 12.78258 16.15359 3.727267 -14.85488 -2.345814 -93.18552 23.56106 26.41088 0 0 -9.191112 -2.004742 6.702062 16.87078
1718.65 101.5691 2476.627 5.470787 -0.1823764 60.96068 -1.19174 14.60714 5.057078 -0 43.79464 -0 2.738959 1.492662 -2.700931 -4.045161 -19.5864 -6.896064 -0 22.917 -0 -3.429137 -9.214156 18.70235 -3.796119 -1.030009 8.430161 -1.375528 10.30415 -3.409557 1.723765 21.27051 6.736574 3.400131 -18.98333 7.379555 3.806618 -20.14321 11.30633 80.2304 29.81111 -6.721761 -0 0 21.12773 -28.53395 13.69703 16.11827 3.2468 -15.39238 -2.930549 -92.37002 23.22916 26.35731 0 0 -9.823521 -1.89973 5.922005 17.24389
1725.289 102.9253 2478.746 5.865087 -0.3284054 62.0316 -1.120021 9.227986 5.10957 -0 52.80371 -0 3.121861 4.49543 -4.126704 -5.032635 -14.55649 -7.11773 -0 22.69355 -0 -2.627699 -10.12019 17.63436 -4.037022 -0.9164781 7.583665 -1.096452 11.01476 -4.309052 1.351652 21.02433 7.028766 3.262756 -18.93156 7.406198 4.751108 -19.65862 11.6591 81.63872 30.46905 -8.954452 -0 0 19.70907 -28.2017 14.59625 16.034 2.786517 -16.17655 -3.569865 -90.87534 23.04297 25.03031 0 0 -11.16655 -1.662964 5.338678 17.26488
1731.446 104.4113 2480.635 6.229635 -0.6997704 63.3537 -0.7011945 2.809057 4.703885 -0 57.39117 -0 3.039574 4.738152 -5.564521 -5.560824 -8.737271 -7.283745 -0 20.95867 -0 -2.19603 -11.37969 16.69675 -3.994909 -0.5047901 6.282478 -0.6237677 11.29446 -5.356597 0.9889357 21.15643 7.232427 2.907548 -18.57546 7.513439 5.23824 -18.88502 11.76759 83.24704 30.88435 -11.29538 -0 0 17.8127 -27.43664 15.10197 15.7388 2.600763 -17.04659 -4.126471 -88.91983 23.22447 22.16361 0 0 -13.05978 -1.416328 5.218525 16.88849
